<svg width="25" height="24" viewBox="0 0 25 24" fill="none" xmlns="http://www.w3.org/2000/svg">
<path d="M10.58 2C5.97 2.936 2.5 7.012 2.5 11.899C2.5 17.478 7.022 22 12.601 22C17.488 22 21.564 18.53 22.5 13.92" stroke="#7C7C7C" stroke-width="2" stroke-linecap="round" stroke-linejoin="round"/>
<path d="M19.438 18C19.8099 17.9215 20.1678 17.7877 20.5 17.603M15.188 17.341C15.7847 17.601 16.357 17.7943 16.905 17.921M11.355 14.948C11.768 15.238 12.21 15.586 12.64 15.886M3.5 13.826C3.822 13.669 4.17 13.488 4.563 13.333M6.95 13C7.512 13.062 8.142 13.223 8.856 13.523M18.5 7.5C18.5 7.10218 18.342 6.72064 18.0607 6.43934C17.7794 6.15804 17.3978 6 17 6C16.6022 6 16.2206 6.15804 15.9393 6.43934C15.658 6.72064 15.5 7.10218 15.5 7.5C15.5 7.89782 15.658 8.27936 15.9393 8.56066C16.2206 8.84196 16.6022 9 17 9C17.3978 9 17.7794 8.84196 18.0607 8.56066C18.342 8.27936 18.5 7.89782 18.5 7.5Z" stroke="#7C7C7C" stroke-width="2" stroke-linecap="round" stroke-linejoin="round"/>
<path d="M17.9881 13.62C17.7179 13.8658 17.3654 14.0014 17.0001 14C16.6348 14.0014 16.2823 13.8658 16.0121 13.62C13.5851 11.376 10.3331 8.868 11.9191 5.228C12.7771 3.259 14.8351 2 17.0001 2C19.1651 2 21.2231 3.26 22.0801 5.228C23.6651 8.864 20.4201 11.383 17.9881 13.62Z" stroke="#7C7C7C" stroke-width="2" stroke-linecap="round" stroke-linejoin="round"/>
</svg>
