<svg width="25" height="24" viewBox="0 0 25 24" fill="none" xmlns="http://www.w3.org/2000/svg">
<path d="M16.5 4.00201C18.675 4.01401 19.853 4.11101 20.621 4.87901C21.5 5.75801 21.5 7.17201 21.5 10V16C21.5 18.829 21.5 20.243 20.621 21.122C19.743 22 18.328 22 15.5 22H9.5C6.672 22 5.257 22 4.379 21.122C3.5 20.242 3.5 18.829 3.5 16V10C3.5 7.17201 3.5 5.75801 4.379 4.87901C5.147 4.11101 6.325 4.01401 8.5 4.00201" stroke="#7C7C7C" stroke-width="2"/>
<path d="M11 14H17.5M7.5 14H8M7.5 10.5H8M7.5 17.5H8M11 10.5H17.5M11 17.5H17.5" stroke="#7C7C7C" stroke-width="2" stroke-linecap="round"/>
<path d="M8.5 3.5C8.5 3.10218 8.65804 2.72064 8.93934 2.43934C9.22064 2.15804 9.60218 2 10 2H15C15.3978 2 15.7794 2.15804 16.0607 2.43934C16.342 2.72064 16.5 3.10218 16.5 3.5V4.5C16.5 4.89782 16.342 5.27936 16.0607 5.56066C15.7794 5.84196 15.3978 6 15 6H10C9.60218 6 9.22064 5.84196 8.93934 5.56066C8.65804 5.27936 8.5 4.89782 8.5 4.5V3.5Z" stroke="#7C7C7C" stroke-width="2"/>
</svg>
